<svg width="221" height="201" viewBox="0 0 221 201" fill="none" xmlns="http://www.w3.org/2000/svg">
<path d="M6.5265 19.6V11.344H21.9505V58H12.7345V19.6H6.5265Z" fill="#EBDE02"/>
<path d="M169.214 174.672C170.042 172.81 171.254 169.826 171.671 167.458C172.378 163.762 167.105 165.048 167.105 165.048C167.105 165.048 169.952 160.672 169.741 157.165C169.53 153.659 166.235 155.415 166.235 155.415C166.235 155.415 169.082 140.967 164.922 138.341C160.761 135.715 157.914 155.214 157.914 155.214C157.914 155.214 156.163 152.367 152.878 153.464C149.593 154.56 151.127 163.314 151.127 163.314C151.127 163.314 147.405 158.937 146.529 163.314C145.886 166.541 149.282 172.025 151.112 174.687L169.214 174.672Z" fill="#EBDE02" stroke="#216BC6" stroke-linecap="round" stroke-linejoin="round"/>
<path d="M159.221 174.672L163.108 148.27" stroke="#216BC6" stroke-linecap="round" stroke-linejoin="round"/>
<path d="M160.034 169.325L155.172 159.77" stroke="#216BC6" stroke-linecap="round" stroke-linejoin="round"/>
<path d="M160.519 165.439L166.672 160.577" stroke="#216BC6" stroke-linecap="round" stroke-linejoin="round"/>
<path d="M75.9719 174.672C77.2638 171.782 79.1357 167.142 79.7948 163.467C80.8178 157.666 72.6552 159.728 72.6552 159.728C72.6552 159.728 77.074 152.926 76.7365 147.484C76.399 142.043 71.2948 144.779 71.2948 144.779C71.2948 144.779 75.7135 122.337 69.2542 118.261C62.7948 114.185 58.3708 144.436 58.3708 144.436C58.3708 144.436 55.6552 140.034 50.572 141.705C45.4889 143.377 47.8512 156.997 47.8512 156.997C47.8512 156.997 42.0509 150.195 40.7116 156.997C39.7097 162.011 44.9827 170.527 47.8301 174.661L75.9719 174.672Z" fill="#EBDE02" stroke="#216BC6" stroke-linecap="round" stroke-linejoin="round"/>
<path d="M60.4272 174.672L66.4647 133.664" stroke="#216BC6" stroke-linecap="round" stroke-linejoin="round"/>
<path d="M61.6822 166.367L54.1365 151.529" stroke="#216BC6" stroke-linecap="round" stroke-linejoin="round"/>
<path d="M62.4362 160.329L71.9961 152.783" stroke="#216BC6" stroke-linecap="round" stroke-linejoin="round"/>
<path d="M42.6783 174.672H182.908" stroke="#216BC6" stroke-linecap="round" stroke-linejoin="round"/>
<path d="M36.4457 174.672H38.7553" stroke="#216BC6" stroke-linecap="round" stroke-linejoin="round"/>
<path d="M154.033 48.4579C154.033 48.4579 149.045 43.1164 144.774 43.4697C140.502 43.823 139.785 48.1046 137.291 48.4579C134.797 48.8112 130.526 44.5401 127.32 46.3223C124.114 48.1046 124.826 50.5987 122.332 50.952C119.838 51.3053 116.632 48.8165 114.138 49.8974C112.256 50.7884 110.467 51.8622 108.796 53.1034H163.292C163.292 53.1034 161.868 46.702 154.033 48.4579Z" stroke="#216BC6" stroke-linecap="round" stroke-linejoin="round"/>
<path d="M81.3661 30.6459C81.3661 30.6459 76.3779 25.3043 72.1068 25.6629C67.8357 26.0215 67.1186 30.2926 64.6244 30.6459C62.1303 30.9991 57.8592 26.728 54.6533 28.5103C51.4473 30.2926 52.1591 32.7867 49.665 33.14C47.1709 33.4933 43.965 31.0044 41.4708 32.0854C39.5884 32.9741 37.799 34.0481 36.1293 35.2913H90.6465C90.6465 35.2913 89.2017 28.8689 81.3661 30.6459Z" stroke="#216BC6" stroke-linecap="round" stroke-linejoin="round"/>
<path d="M72.1068 25.6628L76.6732 24.6873" stroke="#216BC6" stroke-linecap="round" stroke-linejoin="round"/>
<path d="M76.6732 25.4784C77.11 25.4784 77.4642 25.1243 77.4642 24.6874C77.4642 24.2506 77.11 23.8965 76.6732 23.8965C76.2364 23.8965 75.8823 24.2506 75.8823 24.6874C75.8823 25.1243 76.2364 25.4784 76.6732 25.4784Z" fill="#216BC6"/>
<path d="M42.1511 31.2574H40.4057V33.0028H42.1511V31.2574Z" fill="white" stroke="#216BC6" stroke-linecap="round" stroke-linejoin="round"/>
<path d="M50.1924 32.1803H48.4471V33.9256H50.1924V32.1803Z" fill="white" stroke="#216BC6" stroke-linecap="round" stroke-linejoin="round"/>
<path d="M55.0541 27.9408H53.3087V29.6861H55.0541V27.9408Z" fill="white" stroke="#216BC6" stroke-linecap="round" stroke-linejoin="round"/>
<path d="M64.229 29.4806H62.4836V31.2259H64.229V29.4806Z" fill="white" stroke="#216BC6" stroke-linecap="round" stroke-linejoin="round"/>
<path d="M72.5339 24.8667H70.7885V26.6121H72.5339V24.8667Z" fill="white" stroke="#216BC6" stroke-linecap="round" stroke-linejoin="round"/>
<path d="M82.2362 29.7759H80.4908V31.5212H82.2362V29.7759Z" fill="white" stroke="#216BC6" stroke-linecap="round" stroke-linejoin="round"/>
<path d="M91.5008 34.4055H89.7554V36.1509H91.5008V34.4055Z" fill="white" stroke="#216BC6" stroke-linecap="round" stroke-linejoin="round"/>
<path d="M37.1259 34.4055H35.3806V36.1509H37.1259V34.4055Z" fill="white" stroke="#216BC6" stroke-linecap="round" stroke-linejoin="round"/>
<path d="M137.497 130.416L132.851 126.561L133.4 132.572L134.881 130.447L137.497 130.416Z" fill="#216BC6"/>
<path d="M86.6339 62.4417L90.4304 68.3053L94.2216 64.514L91.6379 58.9932L92.6714 55.0279L87.3246 52.9609L86.6339 62.4417Z" fill="white" stroke="#216BC6" stroke-linecap="round" stroke-linejoin="round"/>
<path d="M78.7983 53.0719L78.9723 56.6892L77.4642 59.7897C77.422 59.8772 77.4006 59.9733 77.4019 60.0705C77.4031 60.1676 77.4269 60.2632 77.4714 60.3496C77.5159 60.436 77.5798 60.5109 77.6582 60.5684C77.7365 60.6258 77.8272 60.6643 77.9229 60.6808L79.8212 61.0024C79.8212 61.0024 82.0622 67.2087 82.753 67.3827C83.4437 67.5567 90.3408 64.2769 90.5095 63.0694C90.6782 61.8619 91.0368 59.6209 91.0368 59.6209C91.5418 59.4511 91.9804 59.1262 92.29 58.6926C92.5996 58.259 92.7644 57.7387 92.7611 57.2059C92.7611 55.3129 89.4866 54.7962 89.4866 54.7962L78.7983 53.0719Z" fill="white" stroke="#216BC6" stroke-linecap="round" stroke-linejoin="round"/>
<path d="M80.9338 56.7207C80.9338 57.248 80.7492 57.654 80.5172 57.654C80.2852 57.654 80.1006 57.248 80.1006 56.7207C80.1006 56.1934 80.2905 55.7874 80.5225 55.7874C80.7545 55.7874 80.9338 56.1934 80.9338 56.7207Z" fill="#216BC6"/>
<path d="M79.6313 55.0439C79.7419 54.8672 79.892 54.7187 80.0697 54.61C80.2475 54.5012 80.4481 54.4353 80.6557 54.4174C80.8633 54.3995 81.0722 54.4301 81.266 54.5068C81.4598 54.5835 81.633 54.7042 81.7722 54.8593" stroke="#216BC6" stroke-linecap="round" stroke-linejoin="round"/>
<path d="M80.9337 61.751C81.4356 61.8152 81.9439 61.7008 82.37 61.428C82.796 61.1553 83.1126 60.7414 83.2644 60.2588" stroke="#216BC6" stroke-linecap="round" stroke-linejoin="round"/>
<path d="M78.7982 53.0717L96.3888 56.0035C96.3888 56.0035 96.7368 49.7919 94.6646 46.5121C92.5923 43.2323 86.0433 43.7544 82.5948 45.1306C79.1462 46.5069 78.7982 53.0717 78.7982 53.0717Z" fill="#EBDE02" stroke="#216BC6" stroke-linecap="round" stroke-linejoin="round"/>
<path d="M86.2173 54.4479C86.2173 54.4479 86.2173 57.0369 87.2718 56.8629C88.3264 56.6889 89.5129 54.7959 89.5129 54.7959L86.2173 54.4479Z" fill="#216BC6" stroke="#216BC6" stroke-linecap="round" stroke-linejoin="round"/>
<path d="M88.4636 54.796C88.4636 54.796 94.1531 61.0076 96.5681 61.1763C98.9831 61.345 102.432 60.4855 101.567 59.452C100.702 58.4185 96.2939 55.6977 96.2939 55.6977L88.4636 54.796Z" fill="#EBDE02" stroke="#216BC6" stroke-linecap="round" stroke-linejoin="round"/>
<path d="M104.272 114.017C109.94 122.453 117.692 133.901 118.019 134.007C118.546 134.181 149.06 119.348 149.06 119.348C149.06 119.348 155.958 134.181 156.822 134.007C157.687 133.832 155.615 115.024 154.75 114.866C153.885 114.707 120.091 125.902 120.091 125.902L113.537 104.346L113.494 104.235C114.037 102.66 114.341 101.013 114.396 99.3473L94.7384 104.003L94.9124 107.969C94.9124 107.969 81.4611 126.424 81.4611 127.283C81.4611 128.143 84.2188 155.91 84.2188 155.91C84.2188 155.91 70.9415 164.184 71.6322 164.532C72.323 164.88 90.4304 164.532 90.4304 164.532L89.3758 155.04L88.1683 127.969C88.1683 127.969 97.0796 120.524 104.272 114.017Z" stroke="#216BC6" stroke-linecap="round" stroke-linejoin="round"/>
<path d="M82.3047 126.387H80.5594V128.132H82.3047V126.387Z" fill="white" stroke="#216BC6" stroke-linecap="round" stroke-linejoin="round"/>
<path d="M89.0594 127.099H87.314V128.844H89.0594V127.099Z" fill="white" stroke="#216BC6" stroke-linecap="round" stroke-linejoin="round"/>
<path d="M85.0942 155.035H83.3488V156.78H85.0942V155.035Z" fill="white" stroke="#216BC6" stroke-linecap="round" stroke-linejoin="round"/>
<path d="M72.5023 163.656H70.757V165.402H72.5023V163.656Z" fill="white" stroke="#216BC6" stroke-linecap="round" stroke-linejoin="round"/>
<path d="M90.2669 154.17H88.5215V155.916H90.2669V154.17Z" fill="white" stroke="#216BC6" stroke-linecap="round" stroke-linejoin="round"/>
<path d="M118.889 133.136H117.143V134.882H118.889V133.136Z" fill="white" stroke="#216BC6" stroke-linecap="round" stroke-linejoin="round"/>
<path d="M105.142 113.141H103.397V114.887H105.142V113.141Z" fill="white" stroke="#216BC6" stroke-linecap="round" stroke-linejoin="round"/>
<path d="M120.961 125.027H119.216V126.772H120.961V125.027Z" fill="white" stroke="#216BC6" stroke-linecap="round" stroke-linejoin="round"/>
<path d="M149.931 118.478H148.185V120.223H149.931V118.478Z" fill="white" stroke="#216BC6" stroke-linecap="round" stroke-linejoin="round"/>
<path d="M157.418 133.268H155.673V135.014H157.418V133.268Z" fill="white" stroke="#216BC6" stroke-linecap="round" stroke-linejoin="round"/>
<path d="M155.652 113.869H153.906V115.614H155.652V113.869Z" fill="white" stroke="#216BC6" stroke-linecap="round" stroke-linejoin="round"/>
<path d="M91.042 163.409H89.2967V165.154H91.042V163.409Z" fill="white" stroke="#216BC6" stroke-linecap="round" stroke-linejoin="round"/>
<path d="M129.92 91.2429L121.641 68.6535L114.786 66.7078L112.751 71.6222L117.328 72.7928L125.765 92.1024C125.765 92.1024 125.074 94.0006 125.237 94.8654C125.401 95.7302 126.961 99.3474 127.995 99.8642C128.247 100.021 128.55 100.074 128.84 100.009C129.13 99.9454 129.383 99.7702 129.545 99.5214C129.545 99.5214 133.168 98.1399 133.516 97.2751C133.864 96.4104 132.651 94.8654 132.461 93.6579C132.271 92.4504 129.92 91.2429 129.92 91.2429Z" fill="white" stroke="#216BC6" stroke-linecap="round" stroke-linejoin="round"/>
<path d="M123.487 167.801H57.2318L48.9268 162.744C48.7465 162.642 48.5886 162.505 48.4624 162.341C48.3362 162.176 48.2443 161.988 48.1922 161.788C48.1402 161.587 48.129 161.378 48.1593 161.173C48.1896 160.969 48.2608 160.772 48.3687 160.595C48.4765 160.418 48.6189 160.265 48.7872 160.144C48.9556 160.023 49.1465 159.938 49.3486 159.892C49.5507 159.847 49.7599 159.842 49.9638 159.879C50.1676 159.916 50.3619 159.994 50.5351 160.108L58.0965 164.711H122.211L124.847 162.074C125.14 161.805 125.527 161.659 125.925 161.667C126.324 161.676 126.703 161.838 126.985 162.119C127.267 162.401 127.429 162.781 127.437 163.179C127.446 163.578 127.3 163.964 127.03 164.258L123.487 167.801Z" fill="#216BC6" stroke="#216BC6" stroke-miterlimit="10"/>
<path d="M66.4964 171.392C66.4975 170.777 66.3162 170.176 65.9756 169.665C65.6349 169.154 65.1503 168.755 64.5828 168.519C64.0154 168.283 63.3908 168.221 62.788 168.34C62.1852 168.459 61.6313 168.755 61.1964 169.189C60.7615 169.623 60.4652 170.176 60.3449 170.779C60.2247 171.381 60.2859 172.006 60.5208 172.574C60.7557 173.142 61.1538 173.627 61.6646 173.969C62.1755 174.31 62.7762 174.492 63.3907 174.492C64.2134 174.492 65.0026 174.166 65.5849 173.585C66.1672 173.003 66.495 172.215 66.4964 171.392Z" fill="#216BC6" stroke="#216BC6" stroke-linecap="round" stroke-linejoin="round"/>
<path d="M63.3906 172.868C64.206 172.868 64.867 172.207 64.867 171.392C64.867 170.576 64.206 169.915 63.3906 169.915C62.5752 169.915 61.9142 170.576 61.9142 171.392C61.9142 172.207 62.5752 172.868 63.3906 172.868Z" fill="white" stroke="#216BC6" stroke-linecap="round" stroke-linejoin="round"/>
<path d="M113.916 171.392C113.917 170.777 113.736 170.176 113.395 169.664C113.054 169.153 112.569 168.754 112.001 168.518C111.434 168.283 110.809 168.221 110.206 168.34C109.603 168.46 109.049 168.756 108.614 169.191C108.18 169.625 107.884 170.179 107.764 170.782C107.644 171.385 107.706 172.01 107.942 172.578C108.178 173.145 108.577 173.63 109.088 173.971C109.6 174.312 110.201 174.493 110.816 174.492C111.638 174.491 112.425 174.164 113.006 173.583C113.588 173.002 113.915 172.214 113.916 171.392Z" fill="#216BC6" stroke="#216BC6" stroke-linecap="round" stroke-linejoin="round"/>
<path d="M112.292 171.392C112.292 171.1 112.206 170.814 112.043 170.572C111.881 170.329 111.65 170.14 111.381 170.028C111.111 169.916 110.814 169.887 110.528 169.944C110.241 170.001 109.978 170.141 109.772 170.348C109.565 170.554 109.425 170.817 109.368 171.104C109.311 171.39 109.34 171.687 109.452 171.957C109.563 172.227 109.753 172.457 109.995 172.619C110.238 172.782 110.524 172.868 110.816 172.868C111.207 172.868 111.583 172.713 111.86 172.436C112.137 172.159 112.292 171.783 112.292 171.392Z" fill="white" stroke="#216BC6" stroke-linecap="round" stroke-linejoin="round"/>
<path d="M77.8596 77.9548L74.216 80.7231L54.4845 78.0022L52.0959 74.3112L48.273 74.6803L48.1517 75.4185C48.1517 75.4185 45.684 75.4185 45.4361 75.9141C45.1883 76.4098 45.4361 78.1341 45.4361 78.1341L46.4222 78.3766C46.4222 78.3766 46.3009 80.5965 46.9178 81.0922C47.5348 81.5878 53.0872 81.6195 53.0872 81.6195L76.631 87.3037L81.8249 82.9588L77.8596 77.9548Z" fill="white" stroke="#216BC6" stroke-linecap="round" stroke-linejoin="round"/>
<path d="M127.151 98.2453L130.805 97.1907C130.959 97.1416 131.092 97.0452 131.187 96.9154C131.282 96.7856 131.333 96.6291 131.333 96.4683C131.332 96.2842 131.264 96.1067 131.141 95.969C131.019 95.8312 130.851 95.7426 130.668 95.7196L128.127 95.4296" fill="white"/>
<path d="M127.151 98.2453L130.805 97.1907C130.959 97.1416 131.092 97.0452 131.187 96.9154C131.282 96.7856 131.333 96.6291 131.333 96.4683C131.332 96.2842 131.264 96.1067 131.141 95.969C131.019 95.8312 130.851 95.7426 130.668 95.7196L128.127 95.4296" stroke="#216BC6" stroke-linecap="round" stroke-linejoin="round"/>
<path d="M129.867 95.7827L129.123 93.4415" stroke="#216BC6" stroke-linecap="round" stroke-linejoin="round"/>
<path d="M131.343 95.783L132.825 95.166" stroke="#216BC6" stroke-linecap="round" stroke-linejoin="round"/>
<path d="M112.972 75.3921L117.718 67.3878C117.718 67.3878 105.284 63.47 100.349 62.7897C95.4133 62.1095 94.0476 63.6387 94.0476 63.6387L85.748 71.7538L74.8277 79.9849L80.1006 88.3584L87.9046 82.0308L94.4009 109.614C94.4009 109.614 103.439 109.403 108.047 107.504C112.951 105.459 117.739 101.309 117.739 101.309L102.558 69.1437L112.972 75.3921Z" fill="#216BC6" stroke="#216BC6" stroke-miterlimit="10"/>
<path d="M31.0198 28.8185V200H194.445V28.8185H31.0198ZM192.636 194.579H32.8285V36.053H192.636V194.579Z" fill="#216BC6" stroke="#216BC6" stroke-linecap="round" stroke-linejoin="round"/>
<path opacity="0.2" d="M31.0198 28.8185V200H194.445V28.8185H31.0198ZM192.636 194.579H32.8285V36.053H192.636V194.579Z" fill="white"/>
<path d="M192.636 36.0529H32.8284V194.579H192.636V36.0529Z" stroke="#216BC6" stroke-linecap="round" stroke-linejoin="round"/>
<path d="M36.9361 29.6936H33.5561V34.4393H37.6268V30.3475L36.9361 29.6936ZM37.3632 34.1387H33.8197V29.9994H36.7621L37.3632 30.5689V34.1387Z" fill="#EBDE02"/>
<path d="M189.541 30.7272L186.957 32.9682" stroke="#EBDE02" stroke-miterlimit="10"/>
<path d="M186.957 30.7272L189.541 32.9682" stroke="#EBDE02" stroke-miterlimit="10"/>
<path d="M192.984 29.3508V34.5183H169.551V29.3508" stroke="#EBDE02" stroke-width="0.5" stroke-miterlimit="10"/>
<path d="M183.683 34.5184V29.5249" stroke="#EBDE02" stroke-width="0.5" stroke-miterlimit="10"/>
<path d="M176.274 34.5184V29.5249" stroke="#EBDE02" stroke-width="0.5" stroke-miterlimit="10"/>
<path d="M181.442 30.6427H178.515V32.7097H181.442V30.6427Z" stroke="#EBDE02" stroke-miterlimit="10"/>
<path d="M173.516 32.6255H170.933" stroke="#EBDE02" stroke-miterlimit="10"/>
<path d="M192.636 36.0106H186.81V194.579H192.636V36.0106Z" fill="#216BC6"/>
<path opacity="0.2" d="M190.511 117.225H189.182C188.087 117.225 187.2 118.113 187.2 119.207V124.57C187.2 125.665 188.087 126.553 189.182 126.553H190.511C191.606 126.553 192.494 125.665 192.494 124.57V119.207C192.494 118.113 191.606 117.225 190.511 117.225Z" fill="white"/>
<path d="M35.0589 73.0195H15.3749V142.18H35.0589V73.0195Z" fill="#216BC6"/>
<path opacity="0.2" d="M35.0589 73.0195H15.3749V142.18H35.0589V73.0195Z" fill="white"/>
<path d="M23.5006 82.379H18.4438C17.8119 82.379 17.2996 82.8913 17.2996 83.5233V88.7646C17.2996 89.3965 17.8119 89.9088 18.4438 89.9088H23.5006C24.1325 89.9088 24.6448 89.3965 24.6448 88.7646V83.5233C24.6448 82.8913 24.1325 82.379 23.5006 82.379Z" fill="#216BC6"/>
<path d="M35.0589 73.0195H15.3749V76.5155H35.0589V73.0195Z" fill="#216BC6"/>
<path d="M21.8871 77.085V78.6036" stroke="#216BC6" stroke-linecap="round" stroke-linejoin="round"/>
<path d="M22.6411 77.085V78.6036" stroke="#216BC6" stroke-linecap="round" stroke-linejoin="round"/>
<path d="M23.4005 77.085V78.6036" stroke="#216BC6" stroke-linecap="round" stroke-linejoin="round"/>
<path d="M24.1597 77.085V78.6036" stroke="#216BC6" stroke-linecap="round" stroke-linejoin="round"/>
<path d="M24.9191 77.085V78.6036" stroke="#216BC6" stroke-linecap="round" stroke-linejoin="round"/>
<path d="M25.6783 77.085V78.6036" stroke="#216BC6" stroke-linecap="round" stroke-linejoin="round"/>
<path d="M26.4377 77.085V78.6036" stroke="#216BC6" stroke-linecap="round" stroke-linejoin="round"/>
<path d="M27.197 77.085V78.6036" stroke="#216BC6" stroke-linecap="round" stroke-linejoin="round"/>
<path d="M27.951 77.085V78.6036" stroke="#216BC6" stroke-linecap="round" stroke-linejoin="round"/>
<path d="M28.7103 77.085V78.6036" stroke="#216BC6" stroke-linecap="round" stroke-linejoin="round"/>
<path d="M23.0946 86.6184L19.4615 83.6128C19.4197 83.578 19.3686 83.5565 19.3145 83.5509C19.2604 83.5453 19.206 83.5559 19.1579 83.5813C19.1099 83.6067 19.0705 83.6458 19.0448 83.6937C19.019 83.7416 19.0081 83.796 19.0133 83.8501L19.4404 88.5641C19.4463 88.6199 19.4691 88.6726 19.5059 88.7151C19.5427 88.7575 19.5916 88.7876 19.6461 88.8014H19.7146C19.7589 88.8014 19.8025 88.7909 19.842 88.7707C19.8814 88.7505 19.9154 88.7213 19.9413 88.6854L20.9959 87.1351H22.9047C22.9609 87.1333 23.0152 87.1146 23.0605 87.0814C23.1059 87.0483 23.1402 87.0022 23.159 86.9493C23.1777 86.8963 23.1801 86.8389 23.1658 86.7846C23.1515 86.7303 23.1212 86.6816 23.0788 86.6447L23.0946 86.6184Z" fill="white"/>
<path d="M22.9153 86.8293L19.277 83.8079L19.7041 88.5219L20.8694 86.8556L22.9153 86.8293Z" fill="#216BC6"/>
<path d="M31.8213 86.8293L28.183 83.8079L28.6154 88.5219L29.7754 86.8556L31.8213 86.8293Z" fill="white"/>
<path d="M33.2662 89.5132L33.1977 88.543L32.3329 89.355L33.2662 89.5132Z" fill="white"/>
<path d="M33.2662 120.418L33.1977 119.448L32.3329 120.265L33.2662 120.418Z" fill="white"/>
<path d="M33.2662 129.904L33.1977 128.934L32.3329 129.751L33.2662 129.904Z" fill="white"/>
<path d="M33.2662 139.633L33.1977 138.663L32.3329 139.475L33.2662 139.633Z" fill="white"/>
<path d="M24.2125 109.466L24.1439 108.496L23.2792 109.313L24.2125 109.466Z" fill="white"/>
<path d="M24.2125 120.418L24.1439 119.448L23.2792 120.265L24.2125 120.418Z" fill="white"/>
<path d="M24.2125 129.904L24.1439 128.934L23.2792 129.751L24.2125 129.904Z" fill="white"/>
<path d="M24.2125 139.633L24.1439 138.663L23.2792 139.475L24.2125 139.633Z" fill="white"/>
<path d="M22.8102 95.6957L22.1798 95.1591L18.1326 99.9128L18.763 100.449L22.8102 95.6957Z" fill="white"/>
<path d="M20.8905 95.2661C20.0363 94.3222 20.0205 94.1377 20.7165 93.0673C19.7727 93.9215 19.5828 93.9373 18.5177 93.2465C19.3719 94.1904 19.3877 94.375 18.697 95.4401C19.6356 94.5859 19.8254 94.5701 20.8905 95.2661Z" fill="white"/>
<path d="M24.6765 95.7775C24.1492 95.1922 24.1492 95.0762 24.5657 94.4224C23.9857 94.9497 23.8697 94.9497 23.2106 94.5278C23.7379 95.1131 23.7379 95.2291 23.3213 95.883C23.9013 95.3557 24.0173 95.3504 24.6765 95.7775Z" fill="white"/>
<path d="M23.6166 98.0133C23.2422 97.5968 23.2369 97.5124 23.5375 97.0431C23.1262 97.4175 23.0418 97.428 22.5725 97.1222C22.9469 97.5335 22.9574 97.6178 22.6516 98.0871C23.0629 97.7128 23.1525 97.7075 23.6166 98.0133Z" fill="white"/>
<path d="M27.7137 119.084L28.0933 119.448L32.1377 114.692L31.7633 114.333L27.7137 119.084Z" fill="white"/>
<path d="M33.4032 98.6936L30.192 96.0255L30.5716 100.181L31.5946 98.7147L33.4032 98.6936Z" fill="white"/>
<path d="M30.1498 98.9361C28.6101 98.9361 27.3552 98.0292 27.3552 96.9113C27.3552 95.7934 28.6101 94.8865 30.1498 94.8865C31.6895 94.8865 32.9445 95.7934 32.9445 96.9113C32.9445 98.0292 31.6948 98.9361 30.1498 98.9361ZM30.1498 95.129C28.742 95.129 27.5977 95.9252 27.5977 96.9113C27.5977 97.8973 28.742 98.6936 30.1498 98.6936C31.5577 98.6936 32.702 97.8921 32.702 96.9113C32.702 95.9305 31.5577 95.129 30.1498 95.129Z" fill="white"/>
<path d="M28.4519 98.5302C28.3148 98.5312 28.1805 98.4915 28.0661 98.416C27.9517 98.3405 27.8624 98.2326 27.8095 98.1062C27.7565 97.9798 27.7424 97.8404 27.7689 97.706C27.7954 97.5715 27.8613 97.4479 27.9582 97.351C28.0551 97.2541 28.1787 97.1882 28.3131 97.1617C28.4476 97.1352 28.587 97.1493 28.7134 97.2023C28.8398 97.2552 28.9476 97.3445 29.0231 97.4589C29.0986 97.5733 29.1384 97.7076 29.1374 97.8447C29.136 98.0261 29.0633 98.1996 28.9351 98.3279C28.8068 98.4561 28.6332 98.5288 28.4519 98.5302ZM28.4519 97.3965C28.363 97.3955 28.2758 97.4208 28.2014 97.4694C28.127 97.5181 28.0688 97.5877 28.034 97.6695C27.9993 97.7513 27.9897 97.8416 28.0064 97.9288C28.0231 98.0161 28.0653 98.0965 28.1278 98.1597C28.1903 98.2229 28.2701 98.2661 28.3572 98.2839C28.4443 98.3016 28.5347 98.293 28.6169 98.2593C28.6991 98.2255 28.7694 98.1681 28.8189 98.0942C28.8684 98.0204 28.8948 97.9336 28.8948 97.8447C28.8948 97.7267 28.8483 97.6135 28.7654 97.5296C28.6825 97.4457 28.5698 97.3979 28.4519 97.3965Z" fill="white"/>
<path d="M28.2463 99.2523L28.1672 99.0256C28.4593 98.9477 28.7092 98.7584 28.8632 98.4983C28.9502 98.3114 28.9634 98.0986 28.9001 97.9025L29.1321 97.8234C29.2155 98.0784 29.1985 98.3556 29.0847 98.5985C28.9955 98.7578 28.8754 98.8977 28.7314 99.01C28.5875 99.1223 28.4225 99.2047 28.2463 99.2523Z" fill="white"/>
<path d="M19.9282 104.963L22.0646 107.099L23.0564 106.108L20.92 103.971L19.9282 104.963Z" fill="white"/>
<path d="M17.3523 108.876L17.7003 109.229L19.414 107.515C19.3766 107.452 19.3615 107.378 19.371 107.306C19.3806 107.233 19.4143 107.166 19.4668 107.114C19.5111 107.069 19.5673 107.038 19.6288 107.023C19.6903 107.008 19.7547 107.011 19.8147 107.031C19.8746 107.052 19.9277 107.088 19.9679 107.137C20.008 107.186 20.0336 107.245 20.0418 107.308C20.0499 107.37 20.0403 107.434 20.014 107.492C19.9877 107.549 19.9457 107.598 19.8929 107.633C19.8401 107.668 19.7786 107.687 19.7153 107.689C19.6521 107.69 19.5897 107.674 19.5353 107.642L17.8269 109.355L18.1538 109.677L21.0434 108.923L21.7974 107.341L19.6882 105.232L18.1063 105.944L17.3523 108.876Z" fill="white"/>
<path d="M17.0465 102.168H33.9886" stroke="#216BC6" stroke-linecap="round" stroke-linejoin="round"/>
<path d="M31.1084 103.972L30.1166 104.963L32.2531 107.1L33.2449 106.108L31.1084 103.972Z" fill="white"/>
<path d="M28.2884 105.97L27.5186 108.876L27.8666 109.229L29.5803 107.515C29.5429 107.452 29.5277 107.378 29.5373 107.306C29.5469 107.233 29.5806 107.166 29.633 107.114C29.6774 107.069 29.7336 107.038 29.7951 107.023C29.8566 107.008 29.921 107.011 29.981 107.031C30.0409 107.052 30.094 107.088 30.1341 107.137C30.1743 107.186 30.1999 107.245 30.2081 107.308C30.2162 107.37 30.2066 107.434 30.1802 107.492C30.1539 107.549 30.112 107.598 30.0592 107.633C30.0064 107.668 29.9448 107.687 29.8816 107.689C29.8184 107.69 29.756 107.674 29.7016 107.642L27.9931 109.355L28.32 109.677L31.2465 108.923L32.0006 107.341L29.8914 105.232L28.2884 105.97Z" fill="white"/>
<path d="M27.2444 106.814C27.3499 106.608 27.4606 106.387 27.5714 106.139C27.6795 105.937 27.7426 105.715 27.7563 105.486C27.7699 105.258 27.7338 105.029 27.6505 104.816C27.4374 104.43 27.0813 104.144 26.6591 104.019C26.6235 104.01 26.5854 104.014 26.5532 104.033C26.5211 104.051 26.4976 104.081 26.4878 104.117C26.478 104.153 26.4828 104.191 26.501 104.223C26.5193 104.255 26.5497 104.279 26.5853 104.288C26.9321 104.389 27.2254 104.622 27.4026 104.937C27.469 105.113 27.4963 105.301 27.4826 105.489C27.4689 105.676 27.4147 105.859 27.3235 106.023C27.2128 106.271 27.1021 106.487 26.9966 106.687C26.4693 107.742 26.1424 108.38 27.5239 109.429C27.5514 109.438 27.5807 109.438 27.6083 109.429C27.6287 109.429 27.6489 109.425 27.6672 109.416C27.6855 109.406 27.7015 109.393 27.7137 109.377C27.7386 109.35 27.7524 109.315 27.7524 109.279C27.7524 109.243 27.7386 109.208 27.7137 109.182C26.4904 108.312 26.7119 107.869 27.2444 106.814Z" fill="white"/>
<path d="M17.115 113.874V114.149C17.1112 114.564 17.1341 114.98 17.1836 115.393L17.7109 115.272C17.6737 114.992 17.6561 114.71 17.6582 114.428H19.7673V119.126H18.9817V119.654H21.0909V119.126H20.3157V114.428H22.3511V115.414H22.8784C22.8784 115.056 22.8784 114.143 22.8784 114.143V113.869L17.115 113.874Z" fill="white"/>
<path opacity="0.44" d="M20.2419 129.103C21.9164 129.103 23.2739 128.123 23.2739 126.914C23.2739 125.706 21.9164 124.726 20.2419 124.726C18.5674 124.726 17.21 125.706 17.21 126.914C17.21 128.123 18.5674 129.103 20.2419 129.103Z" fill="white"/>
<path d="M20.2419 129.103C21.9164 129.103 23.2739 128.123 23.2739 126.914C23.2739 125.706 21.9164 124.726 20.2419 124.726C18.5674 124.726 17.21 125.706 17.21 126.914C17.21 128.123 18.5674 129.103 20.2419 129.103Z" stroke="white" stroke-miterlimit="10"/>
<path d="M29.4802 126.978L32.8127 123.366C32.8791 123.295 32.9672 123.249 33.0627 123.235C33.1583 123.221 33.2559 123.239 33.34 123.287C33.4385 123.348 33.5087 123.445 33.5354 123.558C33.5621 123.67 33.543 123.789 33.4824 123.888L30.9356 127.906L29.4802 126.978Z" fill="white"/>
<path d="M29.0425 127.278C29.8651 127.178 31.1517 127.842 30.8089 128.86C30.6955 129.1 30.496 129.288 30.25 129.387C29.5013 129.691 28.694 129.822 27.8877 129.772C28.0088 129.703 28.1128 129.607 28.1922 129.492C28.2715 129.377 28.3242 129.246 28.3464 129.108C28.3508 128.823 28.3367 128.537 28.3043 128.254C28.3043 127.848 28.589 127.299 29.0425 127.268" fill="white"/>
<path d="M21.9503 135.203C21.9327 134.847 21.8098 134.504 21.597 134.217L20.6426 135.172C20.89 135.496 21.0334 135.888 21.0539 136.295C21.0828 136.667 21.1463 137.036 21.2438 137.397L22.1823 136.458C22.0561 136.051 21.9783 135.629 21.9503 135.203Z" fill="white"/>
<path d="M20.8484 136.311C20.8304 135.954 20.7075 135.611 20.4951 135.325L19.5354 136.279C19.7873 136.599 19.9329 136.99 19.952 137.397C19.9797 137.769 20.0414 138.138 20.1365 138.499L21.0751 137.56C20.9536 137.154 20.8776 136.734 20.8484 136.311Z" fill="white"/>
<path d="M22.1613 135.188C22.1875 135.561 22.2511 135.93 22.3511 136.29L23.7274 134.908L22.3195 133.5L21.75 134.07C21.9975 134.392 22.141 134.782 22.1613 135.188Z" fill="white"/>
<path d="M19.7409 137.397C19.7233 137.041 19.6004 136.698 19.3876 136.411L18.5861 137.212L17.9956 139.037C17.9855 139.065 17.9839 139.096 17.9907 139.126C17.9976 139.155 18.0127 139.182 18.0344 139.203C18.056 139.224 18.0832 139.238 18.1128 139.244C18.1423 139.251 18.173 139.248 18.2012 139.237L19.9888 138.652C19.8635 138.243 19.7804 137.823 19.7409 137.397ZM18.6072 138.615L18.9236 137.65L19.5616 138.288L18.6072 138.615Z" fill="white"/>
<path d="M27.8402 136.068L26.7856 137.123L29.2639 139.607L30.3185 138.552L30.4714 138.705L32.9497 136.221L30.1709 133.437L27.6873 135.921L27.8402 136.068ZM29.2692 138.979L27.3709 137.118L28.1197 136.369L30.0074 138.246L29.2692 138.979Z" fill="white"/>
<path d="M18.8288 73.9423V74.2745L18.138 74.8598L18.8288 75.4398V75.772L17.7426 74.8598L18.8288 73.9423Z" fill="white"/>
<path d="M17.6371 73.9423V74.2745L16.9516 74.8598L17.6371 75.4398V75.772L16.5508 74.8598L17.6371 73.9423Z" fill="white"/>
<path d="M213.354 41.371H143.772V87.4251H213.354V41.371Z" fill="#216BC6"/>
<path opacity="0.1" d="M213.354 43.2958H167.347V52.1491H213.354V43.2958Z" fill="white"/>
<path opacity="0.2" d="M167.347 52.1544V43.2958H143.772V87.4252H213.354V52.1544H167.347Z" fill="white"/>
<path d="M151.776 60.4011H148.375V63.8022H151.776V60.4011Z" fill="white"/>
<path d="M153.474 62.099H150.073V65.5001H153.474V62.099Z" fill="white"/>
<path d="M160.745 62.099H162.443V60.4011H159.042V63.8022H160.745V62.099Z" fill="white"/>
<path d="M164.289 65.6425H160.598V61.9514H164.289V65.6425ZM160.888 65.3525H163.999V62.2467H160.888V65.3525Z" fill="white"/>
<path d="M173.4 63.9446H169.709V60.2535H173.4V63.9446ZM170.005 63.6546H173.116V60.5436H170.005V63.6546Z" fill="white"/>
<path d="M175.104 65.6425H171.413V61.9514H175.104V65.6425ZM171.703 65.3525H174.814V62.2467H171.703V65.3525Z" fill="white"/>
<path d="M173.258 62.099H171.56V63.7969H173.258V62.099Z" fill="white"/>
<path d="M184.136 81.2664H180.64V77.7704H184.136V81.2664ZM180.735 81.1714H184.041V77.8653H180.735V81.1714Z" fill="white"/>
<path d="M185.934 83.0854H182.243V79.3943H185.934V83.0854ZM182.533 82.8006H185.644V79.6896H182.533V82.8006Z" fill="white"/>
<path d="M184.089 79.5211H182.391V81.219H184.089V79.5211Z" fill="white"/>
<path d="M195.136 81.3611H191.445V77.67H195.136V81.3611ZM191.74 81.0711H194.846V77.9653H191.74V81.0711Z" fill="white"/>
<path d="M196.834 83.0854H193.142V79.3943H196.834V83.0854ZM193.438 82.8006H196.549V79.6896H193.438V82.8006Z" fill="white"/>
<path d="M205.845 79.5211V81.219H204.147V82.9169H207.548V79.5211H205.845Z" fill="white"/>
<path d="M207.706 83.0854H204.015V81.0975H205.713V79.3943H207.706V83.0854ZM204.305 82.8006H207.416V79.6896H206.009V81.3875H204.305V82.8006Z" fill="white"/>
<path d="M205.993 81.3611H202.302V77.67H205.993V81.3611ZM202.592 81.0711H205.703V77.9653H202.592V81.0711Z" fill="white"/>
<path d="M149.677 78.941H151.57V77.4382H148.169V80.834H149.677V78.941Z" fill="white"/>
<path d="M151.375 79.3258H150.062V80.6388H151.375V79.3258Z" fill="white"/>
<path d="M151.76 79.1361V81.0291H149.872V82.5372H153.268V79.1361H151.76Z" fill="white"/>
<path d="M184.004 62.099V60.4011H180.603V63.8022H182.301V62.099H184.004Z" fill="white"/>
<path d="M184.004 62.099V63.8022H182.301V65.5001H185.702V62.099H184.004Z" fill="white"/>
<path d="M160.287 78.8777H162.427V77.3064H159.026V80.7075H160.287V78.8777Z" fill="white"/>
<path d="M164.125 79.2626H160.629V82.4053H164.125V79.2626Z" fill="white"/>
<path d="M173.279 79.3944V77.6913H169.883V81.0923H171.339V79.5421H171.724V82.7902H174.982V79.3944H173.279Z" fill="white"/>
<path d="M148.676 73.5201H162.728" stroke="white" stroke-width="2" stroke-miterlimit="10"/>
<path d="M148.676 47.9149H162.728" stroke="white" stroke-width="2" stroke-miterlimit="10"/>
<path d="M148.676 57.0635H169.462" stroke="white" stroke-width="2" stroke-miterlimit="10"/>
<path d="M200.741 45.4155V45.8796L201.706 46.6969L200.741 47.5089V47.9729L202.259 46.6969L200.741 45.4155Z" fill="white"/>
<path d="M202.402 45.4155V45.8796L203.367 46.6969L202.402 47.5089V47.9729L203.92 46.6969L202.402 45.4155Z" fill="white"/>
<path d="M205.845 44.6456V49.0696" stroke="white" stroke-width="0.5" stroke-miterlimit="10"/>
<path d="M207.77 45.9902H211.239" stroke="white" stroke-width="0.5" stroke-miterlimit="10"/>
<path d="M207.77 46.76H211.239" stroke="white" stroke-width="0.5" stroke-miterlimit="10"/>
<path d="M207.77 47.5299H211.239" stroke="white" stroke-width="0.5" stroke-miterlimit="10"/>
<path d="M207.77 48.2997H211.239" stroke="white" stroke-width="0.5" stroke-miterlimit="10"/>
</svg>
