<svg width="236" height="201" viewBox="0 0 236 201" fill="none" xmlns="http://www.w3.org/2000/svg">
<path d="M3.49424 48.912V41.872L24.4222 11.92H34.8542V41.104H40.4862V48.912H34.8542V58H25.8942V48.912H3.49424ZM26.4702 21.52L13.3502 41.104H26.4702V21.52Z" fill="#EBDE02"/>
<path d="M183.322 119.934V119.9C178.645 118.346 171.467 118.874 170.401 119.51C169.268 120.269 168.294 121.242 167.535 122.376C165.015 125.951 163.209 129.978 162.215 134.237L111.339 138.966C109.465 134.919 106.639 131.29 103.801 129.1C102.99 128.421 102.056 127.906 101.049 127.581C100.606 127.528 100.158 127.544 99.7194 127.627C97.8736 122.279 95.2595 117.119 91.992 116.793C85.113 116.105 73.1091 118.409 69.8359 125.082C66.5626 131.754 65.5365 148.413 65.5365 148.413L63.2435 150.706C61.5711 147.448 59.245 144.57 56.4104 142.251C55.6023 141.568 54.6671 141.052 53.6588 140.732C53.0855 140.571 50.7925 140.926 48.3906 141.712C48.2931 141.62 48.2014 141.528 48.0982 141.442C45.8052 139.522 41.1046 138.473 38.4791 143.369C35.8536 148.264 39.0065 157.534 40.5772 159.632C41.34 160.703 42.2966 161.623 43.3976 162.343C45.2492 166.929 48.5568 172.776 53.6473 173.046C55.3909 173.14 57.1343 172.857 58.7593 172.218C60.3843 171.58 61.853 170.599 63.0658 169.342C66.3677 165.903 66.7231 161.07 65.4792 156.341L66.0123 155.562C66.0123 155.562 67.1989 157.253 71.7448 156.57C73.0626 156.435 74.312 155.917 75.3391 155.08C77.4716 160.52 80.9168 165.972 86.3913 166.786C88.7409 167.145 91.1403 166.994 93.4263 166.344C95.7124 165.693 97.8314 164.557 99.6392 163.014C100.69 162.106 101.607 161.054 102.362 159.89C105.427 159.72 108.315 158.397 110.445 156.186C112.351 154.154 113.44 151.491 113.506 148.705L120.276 147.914C124.526 149.81 129.163 150.678 133.811 150.448C138.261 150.162 142.474 148.338 145.729 145.289L161.155 143.97C161.413 149.949 163.562 155.435 168.607 158.456C170.538 159.609 172.697 160.33 174.933 160.568C177.17 160.807 179.431 160.558 181.562 159.838C188.676 157.453 190.362 146.883 190.82 140.456C191.531 130.138 188.241 121.396 183.322 119.934Z" fill="#216BC6" stroke="#216BC6" stroke-width="0.75" stroke-linecap="round" stroke-linejoin="round"/>
<path d="M89.1372 163.467C88.5457 164.223 87.7913 164.836 86.9302 165.261" stroke="white" stroke-width="0.5" stroke-linecap="round" stroke-linejoin="round"/>
<path d="M91.9175 149.881C91.9175 149.881 92.5997 157.333 90.0602 162.062" stroke="white" stroke-width="0.5" stroke-linecap="round" stroke-linejoin="round"/>
<path d="M93.9296 158.113C93.2818 160.979 91.992 163.759 89.4926 164.992" stroke="white" stroke-width="0.5" stroke-linecap="round" stroke-linejoin="round"/>
<path d="M97.0424 149.313C97.0424 149.313 98.1889 161.701 92.0608 164.694" stroke="white" stroke-width="0.5" stroke-linecap="round" stroke-linejoin="round"/>
<path d="M99.6105 149.027C99.6105 149.027 100.757 161.42 94.6233 164.407" stroke="white" stroke-width="0.5" stroke-linecap="round" stroke-linejoin="round"/>
<path d="M176.948 157.711C176.289 158.543 175.47 159.235 174.54 159.746" stroke="white" stroke-width="0.5" stroke-linecap="round" stroke-linejoin="round"/>
<path d="M181.557 142.239C181.557 142.239 181.19 150.718 178.043 156.112" stroke="white" stroke-width="0.5" stroke-linecap="round" stroke-linejoin="round"/>
<path d="M182.376 151.629C181.345 154.891 179.694 158.055 177.085 159.431" stroke="white" stroke-width="0.5" stroke-linecap="round" stroke-linejoin="round"/>
<path d="M186.647 141.609C186.647 141.609 186.034 155.734 179.63 159.116" stroke="white" stroke-width="0.5" stroke-linecap="round" stroke-linejoin="round"/>
<path d="M189.204 141.299C189.204 141.299 188.59 155.418 182.187 158.806" stroke="white" stroke-width="0.5" stroke-linecap="round" stroke-linejoin="round"/>
<path d="M55.2639 171.131C54.776 171.879 54.1327 172.512 53.3779 172.988" stroke="white" stroke-width="0.5" stroke-linecap="round" stroke-linejoin="round"/>
<path d="M56.1696 159.076C56.1696 159.076 57.7862 165.381 55.9633 169.79" stroke="white" stroke-width="0.5" stroke-linecap="round" stroke-linejoin="round"/>
<path d="M59.1677 165.846C58.9098 168.397 58.0212 170.965 55.8027 172.375" stroke="white" stroke-width="0.5" stroke-linecap="round" stroke-linejoin="round"/>
<path d="M61.0078 157.849C61.0078 157.849 63.7021 168.311 58.2218 171.756" stroke="white" stroke-width="0.5" stroke-linecap="round" stroke-linejoin="round"/>
<path d="M63.4269 157.23C63.4269 157.23 66.1269 167.692 60.6409 171.143" stroke="white" stroke-width="0.5" stroke-linecap="round" stroke-linejoin="round"/>
<path d="M83.1869 145.633C84.5512 153.435 83.6971 160.108 81.2894 160.538C78.8818 160.967 75.8149 154.971 74.4506 147.169C73.0862 139.367 73.9404 132.695 76.3537 132.265C78.7671 131.835 81.8226 137.825 83.1869 145.633Z" fill="#EBDE02" stroke="#216BC6" stroke-linecap="round" stroke-linejoin="round"/>
<path d="M81.9716 145.799C82.3499 148.792 82.0003 151.297 81.1805 151.4C80.3608 151.503 79.3977 149.164 79.0194 146.172C78.641 143.179 79.0194 140.669 79.8104 140.565C80.6015 140.462 81.5933 142.807 81.9716 145.799Z" fill="#EBDE02" stroke="#216BC6" stroke-linecap="round" stroke-linejoin="round"/>
<path d="M76.2219 138.645C76.3032 137.641 76.4623 136.644 76.6977 135.664" stroke="#216BC6" stroke-width="0.75" stroke-linecap="round" stroke-linejoin="round"/>
<path d="M80.0226 157.723C78.4362 154.546 77.3017 151.164 76.6518 147.674C76.2201 145.205 76.0453 142.698 76.1302 140.193" stroke="#216BC6" stroke-width="0.75" stroke-linecap="round" stroke-linejoin="round"/>
<path d="M49.45 168.82C51.183 168.34 51.3273 163.402 49.7723 157.791C48.2174 152.18 45.552 148.021 43.8191 148.501C42.0861 148.982 41.9418 153.919 43.4967 159.53C45.0517 165.141 47.7171 169.3 49.45 168.82Z" fill="#EBDE02" stroke="#216BC6" stroke-linecap="round" stroke-linejoin="round"/>
<path d="M49.2046 158.015C49.7492 160.148 49.7205 161.994 49.1358 162.143C48.5511 162.292 47.6454 160.681 47.1008 158.554C46.5562 156.427 46.5849 154.57 47.1696 154.427C47.7543 154.283 48.66 155.883 49.2046 158.015Z" stroke="#216BC6" stroke-width="0.75" stroke-linecap="round" stroke-linejoin="round"/>
<path d="M44.4008 153.355C44.3688 152.62 44.3937 151.884 44.4753 151.153" stroke="#216BC6" stroke-width="0.75" stroke-linecap="round" stroke-linejoin="round"/>
<path d="M48.8664 166.82C47.433 164.664 46.308 162.318 45.5244 159.85C44.9887 158.102 44.6352 156.304 44.4696 154.484" stroke="#216BC6" stroke-width="0.75" stroke-linecap="round" stroke-linejoin="round"/>
<path d="M172.333 62.0359C166.291 49.5677 163.683 48.4842 159.664 48.2778C155.646 48.0715 146.158 46.8906 135.588 48.5817C135.588 48.5817 106.1 48.0657 83.2844 61.8868C59.4658 76.3155 47.8747 88.9901 46.2524 95.5595C44.6301 102.129 39.0925 119.246 36.467 129.06C33.8415 138.874 32.053 147.519 35.4008 155.464C37.4243 160.268 39.5797 161.713 42.3485 161.69C41.9249 160.93 41.5515 160.143 41.2307 159.334C38.4791 152.518 38.8116 142.767 41.953 142.136C45.0944 141.506 46.9689 148.035 48.8664 155.155C49.2431 156.724 49.7532 158.258 50.3913 159.741C55.0862 157.969 62.6072 154.008 72.6047 149.892C71.6556 143.639 71.6344 137.28 72.5416 131.021C74.0206 121.235 80.2748 119.074 82.9977 125.03C85.2506 129.937 86.0876 140.921 86.3111 144.624C90.3239 143.243 93.6831 142.331 95.7526 142.205C95.7526 142.205 129.964 134.478 155.181 133.858C180.399 133.239 193.016 132.637 193.016 132.637C193.016 132.637 178.375 74.4811 172.333 62.0359Z" fill="white"/>
<mask id="mask0_29_490" style="mask-type:luminance" maskUnits="userSpaceOnUse" x="33" y="47" width="161" height="115">
<path d="M172.333 62.0359C166.291 49.5677 163.683 48.4842 159.664 48.2778C155.646 48.0715 146.158 46.8906 135.588 48.5817C135.588 48.5817 106.1 48.0657 83.2844 61.8868C59.4658 76.3155 47.8747 88.9901 46.2524 95.5595C44.6301 102.129 39.0925 119.246 36.467 129.06C33.8415 138.874 32.053 147.519 35.4008 155.464C37.4243 160.268 39.5797 161.713 42.3485 161.69C41.9249 160.93 41.5515 160.143 41.2307 159.334C38.4791 152.518 38.8116 142.767 41.953 142.136C45.0944 141.506 46.9689 148.035 48.8664 155.155C49.2431 156.724 49.7532 158.258 50.3913 159.741C55.0862 157.969 62.6072 154.008 72.6047 149.892C71.6556 143.639 71.6344 137.28 72.5416 131.021C74.0206 121.235 80.2748 119.074 82.9977 125.03C85.2506 129.937 86.0876 140.921 86.3111 144.624C90.3239 143.243 93.6831 142.331 95.7526 142.205C95.7526 142.205 129.964 134.478 155.181 133.858C180.399 133.239 193.016 132.637 193.016 132.637C193.016 132.637 178.375 74.4811 172.333 62.0359Z" fill="white"/>
</mask>
<g mask="url(#mask0_29_490)">
<path d="M91.7111 122.193C91.7111 122.193 88.243 126.939 84.0238 127.954C85.5143 133.423 86.1277 141.517 86.3168 144.578C89.8997 143.346 92.9436 142.48 95.0302 142.228C95.3341 140.439 95.5175 139.299 95.5175 139.299L91.7111 122.193Z" fill="#EBDE02"/>
<path opacity="0.2" d="M49.0154 155.671C50.6091 155.831 51.6696 156.519 54.9085 155.711C60.641 154.283 56.5193 143.22 66.0295 138.702C67.8757 137.771 69.8846 137.207 71.9455 137.04C72.031 135.015 72.2223 132.997 72.5187 130.992C72.7712 129.023 73.3525 127.111 74.2385 125.334C71.6416 124.537 71.1716 123.775 66.7461 125.879C57.2301 130.396 58.6575 142.05 52.9537 143.478C48.4021 144.624 48.1498 142.795 44.6931 143.644C46.3097 145.937 47.5594 150.402 48.8205 155.109C48.918 155.321 48.9639 155.476 49.0154 155.671Z" fill="#EBDE02"/>
<g style="mix-blend-mode:multiply">
<path opacity="0.2" d="M39.6542 145.874C36.9886 147.708 35.4007 150.46 34.495 152.781C34.7407 153.697 35.0432 154.597 35.4007 155.476C37.4243 160.28 39.5797 161.724 42.3485 161.701C41.9249 160.941 41.5515 160.154 41.2307 159.345C39.4823 155.006 39.0122 149.485 39.6542 145.874Z" fill="#EBDE02"/>
</g>
<g style="mix-blend-mode:multiply" opacity="0.2">
<path d="M159.664 48.2779L158.627 48.2148C116.82 58.9117 99.8112 109.3 93.9583 133.583C94.2736 135.997 94.6175 138.364 94.9901 140.669C95.701 140.531 95.208 142.205 95.7525 142.176C95.7525 142.176 129.964 134.449 155.181 133.83C180.399 133.211 193.016 132.609 193.016 132.609C193.016 132.609 178.375 74.4812 172.333 62.0359C166.291 49.5906 163.683 48.4613 159.664 48.2779Z" fill="#EBDE02"/>
</g>
</g>
<path d="M172.333 62.0359C166.291 49.5677 163.683 48.4842 159.664 48.2778C155.646 48.0715 146.158 46.8906 135.588 48.5817C135.588 48.5817 106.1 48.0657 83.2844 61.8868C59.4658 76.3155 47.8747 88.9901 46.2524 95.5595C44.6301 102.129 39.0925 119.246 36.467 129.06C33.8415 138.874 32.053 147.519 35.4008 155.464C37.4243 160.268 39.5797 161.713 42.3485 161.69C41.9249 160.93 41.5515 160.143 41.2307 159.334C38.4791 152.518 38.8116 142.767 41.953 142.136C45.0944 141.506 46.9689 148.035 48.8664 155.155C49.2431 156.724 49.7532 158.258 50.3913 159.741C55.0862 157.969 62.6072 154.008 72.6047 149.892C71.6556 143.639 71.6344 137.28 72.5417 131.021C74.0206 121.235 80.2748 119.074 82.9977 125.03C85.2506 129.937 86.0876 140.921 86.3111 144.624C90.3239 143.243 93.6831 142.331 95.7526 142.205C95.7526 142.205 129.964 134.478 155.181 133.858C180.399 133.239 193.016 132.637 193.016 132.637C193.016 132.637 178.375 74.4811 172.333 62.0359Z" stroke="#216BC6" stroke-linecap="round" stroke-linejoin="round"/>
<path opacity="0.2" d="M47.1925 124.956C47.586 125.283 48.065 125.491 48.5729 125.555C49.0807 125.619 49.5963 125.536 50.0588 125.317C51.8645 124.595 52.0479 121.877 52.0479 121.877L54.7537 121.7L55.2983 113.21L49.3365 115.554C49.3365 115.554 47.7371 123.872 47.1925 124.956Z" fill="#EBDE02"/>
<path d="M39.3734 149.783C37.6616 150.693 36.0431 151.768 34.5409 152.993C34.7786 153.833 35.0657 154.658 35.4008 155.464C37.4243 160.268 39.5798 161.713 42.3486 161.69C41.925 160.929 41.5515 160.142 41.2307 159.334C40.0556 156.284 39.4268 153.051 39.3734 149.783Z" fill="#216BC6" stroke="#216BC6" stroke-width="0.75" stroke-linecap="round" stroke-linejoin="round"/>
<path d="M48.5052 145.048C48.3501 145.048 48.198 145.005 48.0649 144.925C47.9318 144.846 47.8225 144.732 47.7486 144.595C47.6442 144.397 47.6218 144.166 47.6861 143.952C47.7504 143.737 47.8964 143.557 48.0925 143.449C48.2301 143.374 59.3855 136.461 68.6263 131.548C68.7261 131.495 68.8353 131.462 68.9478 131.451C69.0602 131.441 69.1737 131.452 69.2818 131.485C69.3899 131.518 69.4904 131.572 69.5776 131.644C69.6648 131.716 69.737 131.804 69.79 131.904C69.8431 132.003 69.876 132.113 69.8869 132.225C69.8977 132.338 69.8863 132.451 69.8533 132.559C69.8203 132.667 69.7664 132.768 69.6945 132.855C69.6227 132.942 69.5344 133.014 69.4346 133.067C60.1996 137.974 49.0498 144.882 48.9123 144.957C48.7868 145.022 48.6466 145.053 48.5052 145.048Z" fill="#216BC6" stroke="#216BC6" stroke-miterlimit="10"/>
<path d="M63.0887 87.5855L62.6932 97.4282C62.6072 98.7697 63.3868 99.4174 64.4129 98.8384L80.2633 88.5199C80.846 88.1136 81.3159 87.5659 81.6287 86.9281C81.9416 86.2904 82.0872 85.5835 82.0519 84.8741L81.9544 73.8963C81.8398 72.8989 81.1633 72.4918 80.3321 72.9218C77.3512 74.4638 71.5958 79.6804 64.7168 84.5358C64.2507 84.9053 63.8656 85.3667 63.5855 85.8913C63.3054 86.416 63.1363 86.9927 63.0887 87.5855Z" fill="#EBDE02" stroke="#216BC6" stroke-linecap="round" stroke-linejoin="round"/>
<path d="M73.7971 84.811L81.5417 86.7028" stroke="#216BC6" stroke-linecap="round" stroke-linejoin="round"/>
<path d="M63.2034 98.8845L67.9843 88.3252" stroke="#216BC6" stroke-linecap="round" stroke-linejoin="round"/>
<path d="M63.1805 87.2587L70.2085 88.1358C70.9365 88.2447 71.8423 87.6428 72.5015 86.5995L81.6735 73.4663" stroke="#216BC6" stroke-linecap="round" stroke-linejoin="round"/>
<path d="M102.419 69.299L104.047 93.9487C104.09 94.6603 104.276 95.3557 104.596 95.9927C104.916 96.6297 105.363 97.1947 105.908 97.6534C106.454 98.1121 107.087 98.4548 107.77 98.6605C108.452 98.8662 109.169 98.9307 109.877 98.85L164.634 91.7417C165.389 91.6548 166.115 91.4051 166.764 91.0098C167.412 90.6146 167.967 90.0833 168.39 89.4526C168.813 88.822 169.094 88.107 169.214 87.357C169.333 86.6071 169.289 85.8402 169.083 85.1092L162.169 60.6658C161.842 59.5042 161.124 58.4914 160.135 57.7988C159.147 57.1062 157.95 56.7763 156.746 56.8652C147.872 57.5187 126.588 59.4276 106.495 63.9047C105.289 64.1787 104.218 64.8704 103.472 65.8575C102.726 66.8446 102.354 68.0635 102.419 69.299Z" fill="#EBDE02" stroke="#216BC6" stroke-linecap="round" stroke-linejoin="round"/>
<path d="M143.12 76.9403L168.12 88.7837" stroke="#216BC6" stroke-linecap="round" stroke-linejoin="round"/>
<path d="M106.123 97.7665L127.235 78.8722" stroke="#216BC6" stroke-linecap="round" stroke-linejoin="round"/>
<path d="M102.603 68.6512L132.899 81.1079C134.037 81.5726 135.285 81.6969 136.492 81.4659C137.698 81.2349 138.812 80.6585 139.698 79.8067L161.292 59.4161" stroke="#216BC6" stroke-linecap="round" stroke-linejoin="round"/>
<path d="M163.108 95.2307C168.254 95.104 172.325 90.9013 172.2 85.8436C172.076 80.7859 167.803 76.7885 162.657 76.9152C157.51 77.0418 153.439 81.2446 153.564 86.3023C153.688 91.36 157.961 95.3574 163.108 95.2307Z" fill="#216BC6" stroke="#216BC6" stroke-width="0.75" stroke-linecap="round" stroke-linejoin="round"/>
<path d="M161.877 90.4462H161.848C161.667 90.4466 161.489 90.4043 161.328 90.3226C161.166 90.2409 161.026 90.1222 160.92 89.9761L157.257 84.92C157.078 84.6737 157.004 84.3666 157.052 84.0661C157.1 83.7656 157.265 83.4964 157.512 83.3178C157.758 83.1392 158.065 83.0657 158.366 83.1135C158.666 83.1613 158.935 83.3266 159.114 83.5729L161.848 87.3449L168.383 78.3162C168.562 78.0699 168.831 77.9046 169.132 77.8568C169.432 77.809 169.739 77.8825 169.986 78.0611C170.232 78.2397 170.397 78.5089 170.445 78.8094C170.493 79.1098 170.419 79.417 170.241 79.6633L162.788 89.9818C162.683 90.1245 162.546 90.2407 162.387 90.3213C162.229 90.4019 162.054 90.4446 161.877 90.4462Z" fill="white" stroke="#216BC6" stroke-linecap="round" stroke-linejoin="round"/>
<path d="M127.253 115.153C127.253 115.153 146.743 111.416 160.1 111.679L160.902 114.89C160.902 114.89 132.859 116.219 127.516 118.902L127.253 115.153Z" fill="#216BC6" stroke="#216BC6" stroke-width="0.75" stroke-linecap="round" stroke-linejoin="round"/>
<path d="M127.516 118.891L128.09 122.101C128.149 122.459 128.346 122.779 128.638 122.993C128.931 123.208 129.296 123.299 129.655 123.248C134.544 122.548 151.708 120.192 160.61 120.41C160.829 120.417 161.047 120.371 161.246 120.278C161.444 120.185 161.618 120.046 161.753 119.873C161.887 119.699 161.979 119.497 162.021 119.281C162.062 119.066 162.052 118.844 161.992 118.633L160.925 114.901" stroke="#216BC6" stroke-linecap="round" stroke-linejoin="round"/>
<path d="M56.3932 113.221L56.2843 99.9794L56.9435 86.3647C56.9484 86.2344 56.914 86.1057 56.8446 85.9954C56.7752 85.8851 56.6742 85.7982 56.5547 85.7462C56.4352 85.6942 56.3028 85.6794 56.1748 85.7039C56.0467 85.7283 55.9291 85.7908 55.8371 85.8831C53.3722 88.4054 49.153 92.2233 47.9033 95.3532C46.281 99.4061 44.3607 119.355 44.3607 119.355L56.3932 113.221Z" fill="#216BC6" stroke="#216BC6" stroke-width="0.75" stroke-linecap="round" stroke-linejoin="round"/>
<path d="M41.1275 110.562H39.2071C38.2288 110.562 37.4358 111.355 37.4358 112.333V122.227C37.4358 123.205 38.2288 123.999 39.2071 123.999H41.1275C42.1058 123.999 42.8989 123.205 42.8989 122.227V112.333C42.8989 111.355 42.1058 110.562 41.1275 110.562Z" fill="#216BC6" stroke="#216BC6" stroke-width="0.75" stroke-linecap="round" stroke-linejoin="round"/>
<path d="M42.3371 101.321C43.2461 101.495 44.134 101.766 44.9855 102.129C45.6915 102.476 46.3332 102.942 46.8829 103.505L49.7492 99.7156C49.7492 99.7156 45.5473 97.9557 44.7505 96.8837L43.9594 95.806L42.3371 101.321Z" fill="white"/>
<mask id="mask1_29_490" style="mask-type:luminance" maskUnits="userSpaceOnUse" x="42" y="95" width="8" height="9">
<path d="M42.3371 101.321C43.2461 101.495 44.134 101.766 44.9855 102.129C45.6915 102.476 46.3332 102.942 46.8829 103.505L49.7492 99.7156C49.7492 99.7156 45.5473 97.9557 44.7505 96.8837L43.9594 95.806L42.3371 101.321Z" fill="white"/>
</mask>
<g mask="url(#mask1_29_490)">
<g style="mix-blend-mode:multiply" opacity="0.5">
<path d="M44.7447 96.8839L44.0052 95.8578L43.9192 95.9151L42.3371 101.304C42.3371 101.304 42.6409 101.361 43.0708 101.464L47.1696 98.4947C46.2738 98.1028 45.4532 97.5577 44.7447 96.8839Z" fill="#EBDE02"/>
</g>
</g>
<path d="M42.3371 101.321C43.2461 101.495 44.134 101.766 44.9855 102.129C45.6915 102.476 46.3332 102.942 46.8829 103.505L49.7492 99.7156C49.7492 99.7156 45.5473 97.9557 44.7505 96.8837L43.9594 95.806L42.3371 101.321Z" stroke="#216BC6" stroke-width="0.75" stroke-linecap="round" stroke-linejoin="round"/>
<path d="M48.3906 98.1047L44.888 102.57L45.3638 104.089L50.7008 98.5461L48.3906 98.1047Z" fill="#EBDE02" stroke="#216BC6" stroke-linecap="round" stroke-linejoin="round"/>
<path d="M42.7842 85.4876C40.4167 83.6532 34.2485 84.8226 33.039 89.1678C32.2937 91.8449 32.7065 95.8577 32.7065 95.8577L39.7345 94.3672L40.3078 95.2328C41.4543 96.9526 43.9364 95.8061 44.5785 95.2328C44.9282 94.929 44.9052 94.0347 44.8135 93.2952L45.0944 93.2322C45.0944 93.2322 45.146 87.3277 42.7842 85.4876Z" fill="#216BC6" stroke="#216BC6" stroke-width="0.75" stroke-linecap="round" stroke-linejoin="round"/>
<path d="M40.1587 93.8397C37.074 93.4961 33.9515 93.7927 30.9867 94.7111C26.4007 96.2474 25.6956 97.5773 28.9803 97.4971C32.2651 97.4168 40.1587 93.8397 40.1587 93.8397Z" fill="#216BC6" stroke="#216BC6" stroke-width="0.75" stroke-linecap="round" stroke-linejoin="round"/>
<path d="M34.495 92.1716C35.0301 92.1716 35.4638 91.5787 35.4638 90.8474C35.4638 90.1161 35.0301 89.5232 34.495 89.5232C33.96 89.5232 33.5262 90.1161 33.5262 90.8474C33.5262 91.5787 33.96 92.1716 34.495 92.1716Z" fill="#EBDE02"/>
<path d="M56.2843 99.9794C56.2843 99.9794 50.0072 98.3857 48.0753 99.8532C46.1435 101.321 45.6505 103.746 46.2696 106.686C46.8887 109.627 48.3963 117.36 48.3963 117.36L56.3932 113.221L56.2843 99.9794Z" fill="#216BC6" stroke="#216BC6" stroke-width="0.75" stroke-linecap="round" stroke-linejoin="round"/>
<path d="M46.3211 116.128C46.3211 116.128 45.9829 119.097 45.5874 119.516C45.1918 119.934 34.7587 111.169 34.1224 110.344C33.4861 109.518 33.9217 106.572 34.1224 105.649C34.323 104.726 33.9848 104.221 32.9759 104.858C31.967 105.494 32.2364 108.142 32.2364 108.142C32.2364 108.142 29.158 107.403 28.5447 107.317C27.9313 107.231 27.3982 107.993 27.4899 108.601C27.5816 109.208 28.3899 109.26 28.3899 109.26C28.1831 110.14 28.2409 111.061 28.5561 111.909C29.095 113.021 29.7026 113.72 30.8491 113.995C32.032 114.18 33.2297 114.253 34.4262 114.213C34.4262 114.213 39.7574 119.292 41.3052 121.189C42.853 123.087 46.1148 125.667 47.7371 125.202C49.3594 124.738 50.9072 116.638 50.9072 116.638L46.3211 116.128Z" fill="white"/>
<mask id="mask2_29_490" style="mask-type:luminance" maskUnits="userSpaceOnUse" x="27" y="104" width="24" height="22">
<path d="M46.3211 116.128C46.3211 116.128 45.9829 119.097 45.5874 119.516C45.1918 119.934 34.7587 111.169 34.1224 110.344C33.4861 109.518 33.9217 106.572 34.1224 105.649C34.323 104.726 33.9848 104.221 32.9759 104.858C31.967 105.494 32.2364 108.142 32.2364 108.142C32.2364 108.142 29.158 107.403 28.5447 107.317C27.9313 107.231 27.3982 107.993 27.4899 108.601C27.5816 109.208 28.3899 109.26 28.3899 109.26C28.1831 110.14 28.2409 111.061 28.5561 111.909C29.095 113.021 29.7026 113.72 30.8491 113.995C32.032 114.18 33.2297 114.253 34.4262 114.213C34.4262 114.213 39.7574 119.292 41.3052 121.189C42.853 123.087 46.1148 125.667 47.7371 125.202C49.3594 124.738 50.9072 116.638 50.9072 116.638L46.3211 116.128Z" fill="white"/>
</mask>
<g mask="url(#mask2_29_490)">
<g style="mix-blend-mode:multiply" opacity="0.5">
<path d="M45.5874 119.516L48.6371 120.53C48.7338 121.17 48.5986 121.823 48.2559 122.372C47.9132 122.921 47.3856 123.329 46.7683 123.523C45.4212 123.97 43.002 122.439 41.2823 121.149L41.3339 121.213C42.9103 123.116 46.1434 125.69 47.7657 125.225C49.388 124.761 50.9358 116.661 50.9358 116.661L46.3212 116.088C46.3212 116.088 45.9829 119.097 45.5874 119.516Z" fill="#EBDE02"/>
</g>
</g>
<path d="M46.3212 116.128C46.3212 116.128 45.9829 119.097 45.5874 119.516C45.1918 119.934 34.7587 111.169 34.1224 110.344C33.4861 109.518 33.9217 106.572 34.1224 105.649C34.323 104.726 33.9848 104.221 32.9759 104.858C31.967 105.494 32.2364 108.142 32.2364 108.142C32.2364 108.142 29.158 107.403 28.5447 107.317C27.9313 107.231 27.3982 107.993 27.4899 108.601C27.5816 109.208 28.3899 109.26 28.3899 109.26C28.1831 110.14 28.2409 111.061 28.5561 111.909C29.095 113.021 29.7026 113.72 30.8491 113.995C32.032 114.18 33.2297 114.253 34.4262 114.213C34.4262 114.213 39.7574 119.292 41.3052 121.189C42.853 123.087 46.1148 125.667 47.7371 125.202C49.3594 124.738 50.9072 116.638 50.9072 116.638L46.3212 116.128Z" stroke="#216BC6" stroke-width="0.75" stroke-linecap="round" stroke-linejoin="round"/>
<path d="M35.8938 111.954L34.4262 114.236L35.1772 114.746L36.6791 112.597L35.8938 111.954Z" fill="#216BC6" stroke="#216BC6" stroke-miterlimit="10"/>
<path d="M35.3893 114.104C35.7059 114.104 35.9625 113.848 35.9625 113.531C35.9625 113.214 35.7059 112.958 35.3893 112.958C35.0727 112.958 34.816 113.214 34.816 113.531C34.816 113.848 35.0727 114.104 35.3893 114.104Z" fill="white" stroke="#216BC6" stroke-width="0.75" stroke-linecap="round" stroke-linejoin="round"/>
<path d="M33.9848 96.5914C33.9848 96.5914 34.3345 97.457 34.9192 98.9761C35.5039 100.495 38.6453 103.7 40.1816 103.883C41.7179 104.067 43.5581 98.4832 43.8504 97.3309C43.9479 96.9526 44.0453 96.3449 44.0453 96.3449C44.0453 96.3449 45.9772 95.4335 45.5301 94.3328C45.0829 93.2322 44.1772 92.7277 43.7473 93.0659C43.3173 93.4042 43.2428 94.8315 42.6008 94.843C41.9587 94.8545 41.609 94.6538 41.0415 93.8971C40.474 93.1405 34.5924 94.7112 33.9848 96.5914Z" fill="white"/>
<mask id="mask3_29_490" style="mask-type:luminance" maskUnits="userSpaceOnUse" x="33" y="92" width="13" height="12">
<path d="M33.9848 96.5914C33.9848 96.5914 34.3345 97.457 34.9192 98.9761C35.5039 100.495 38.6453 103.7 40.1816 103.883C41.7179 104.067 43.5581 98.4832 43.8504 97.3309C43.9479 96.9526 44.0453 96.3449 44.0453 96.3449C44.0453 96.3449 45.9772 95.4335 45.5301 94.3328C45.0829 93.2322 44.1772 92.7277 43.7473 93.0659C43.3173 93.4042 43.2428 94.8315 42.6008 94.843C41.9587 94.8545 41.609 94.6538 41.0415 93.8971C40.474 93.1405 34.5924 94.7112 33.9848 96.5914Z" fill="white"/>
</mask>
<g mask="url(#mask3_29_490)">
<path opacity="0.5" d="M41.03 93.897C40.4568 93.146 34.5924 94.7167 33.9848 96.5912L34.3173 97.4396C36.559 96.0877 38.995 95.0882 41.5402 94.4759C41.3501 94.3016 41.179 94.1075 41.03 93.897Z" fill="#EBDE02"/>
<g style="mix-blend-mode:multiply">
<path opacity="0.5" d="M45.4556 94.1781C44.9855 93.1921 44.1543 92.7449 43.7358 93.0659C43.4735 93.4082 43.279 93.7973 43.1626 94.2125C43.924 94.1272 44.6919 94.1156 45.4556 94.1781Z" fill="#EBDE02"/>
</g>
</g>
<path d="M33.9848 96.5914C33.9848 96.5914 34.3345 97.457 34.9192 98.9761C35.5039 100.495 38.6453 103.7 40.1816 103.883C41.7179 104.067 43.5581 98.4832 43.8504 97.3309C43.9479 96.9526 44.0453 96.3449 44.0453 96.3449C44.0453 96.3449 45.9772 95.4335 45.5301 94.3328C45.0829 93.2322 44.1772 92.7277 43.7473 93.0659C43.3173 93.4042 43.2428 94.8315 42.6008 94.843C41.9587 94.8545 41.609 94.6538 41.0415 93.8971C40.474 93.1405 34.5924 94.7112 33.9848 96.5914Z" stroke="#216BC6" stroke-width="0.75" stroke-linecap="round" stroke-linejoin="round"/>
<path d="M36.0657 97.0042C36.1689 97.3538 36.1345 97.6749 35.9969 97.715C35.8594 97.7551 35.6587 97.5029 35.5555 97.1417C35.4524 96.7806 35.4867 96.471 35.6243 96.4309C35.7619 96.3908 35.9625 96.6659 36.0657 97.0042Z" fill="#216BC6" stroke="#216BC6" stroke-miterlimit="10"/>
<path d="M34.9995 96.0297C35.802 95.8004 36.146 96.4023 36.2434 96.9583L36.3924 97.6176L36.8912 100.169L37.6479 99.8475" stroke="#216BC6" stroke-width="0.5" stroke-linecap="round" stroke-linejoin="round"/>
<path d="M38.267 96.2244C38.4413 96.0332 38.6584 95.8857 38.9004 95.7941C39.1424 95.7024 39.4027 95.6692 39.66 95.6971" stroke="#216BC6" stroke-width="0.5" stroke-linecap="round" stroke-linejoin="round"/>
<path d="M38.932 94.6366C38.6059 94.7048 38.3066 94.8662 38.0705 95.1013C37.8344 95.3364 37.6716 95.635 37.6021 95.9608" stroke="#216BC6" stroke-width="0.5" stroke-linecap="round" stroke-linejoin="round"/>
<path d="M38.33 100.673C38.33 100.673 39.9925 100.34 40.1243 99.1481" stroke="#216BC6" stroke-width="0.5" stroke-linecap="round" stroke-linejoin="round"/>
<path d="M52.4435 120.427L44.0511 118.088C44.0511 118.088 44.7906 103.757 46.0861 101.332C48.104 97.5659 52.7301 99.2627 53.6014 103.998C54.4155 108.469 52.4435 120.427 52.4435 120.427Z" fill="#EBDE02" stroke="#216BC6" stroke-linecap="round" stroke-linejoin="round"/>
<path d="M44.2517 116.495C44.2517 116.495 48.8377 117.549 51.6295 118.467" stroke="#216BC6" stroke-width="0.5" stroke-linecap="round" stroke-linejoin="round"/>
<path d="M51.5148 98.827C51.5148 98.827 54.2435 99.0391 56.0263 100.507" stroke="#EBDE02" stroke-width="0.5" stroke-linecap="round" stroke-linejoin="round"/>
<path d="M99.599 135.486C99.599 135.486 87.3773 139.797 86.2595 140.972C85.1417 142.148 85.2563 146.734 87.8933 148.963C90.5302 151.193 109.327 146.137 122.764 144.664C136.201 143.191 165.701 141.024 177.739 140.439C189.777 139.855 195.252 141.442 196.306 137.688C197.361 133.933 197.229 129.92 194.936 129.106C192.643 128.292 150.865 121.602 99.599 135.486Z" fill="#216BC6" stroke="#216BC6" stroke-width="0.75" stroke-linecap="round" stroke-linejoin="round"/>
<path d="M85.3882 143.477C85.3882 143.477 85.9614 148.448 89.0169 149.21C92.0723 149.972 128.382 143.093 149.781 142.331C171.181 141.568 189.909 140.995 189.909 140.995" stroke="white" stroke-width="0.5" stroke-linecap="round" stroke-linejoin="round"/>
<path d="M103.125 146C117.318 142.56 146.514 137.699 195.641 139.081" stroke="white" stroke-width="0.5" stroke-linecap="round" stroke-linejoin="round"/>
<path d="M91.4875 149.027C91.4875 149.027 94.7493 148.236 99.708 146.883" stroke="white" stroke-width="0.5" stroke-linecap="round" stroke-linejoin="round"/>
<path d="M94.48 149.594C94.6342 151.725 94.5766 153.866 94.308 155.986" stroke="white" stroke-width="0.5" stroke-linecap="round" stroke-linejoin="round"/>
<path d="M93.9583 57.9255C93.9583 57.9255 91.2239 61.13 91.0117 64.002" stroke="#216BC6" stroke-width="0.75" stroke-linecap="round" stroke-linejoin="round"/>
<path d="M90.7251 66.318C90.7251 66.318 88.6672 99.0563 94.113 133.898" stroke="#216BC6" stroke-width="0.75" stroke-linecap="round" stroke-linejoin="round"/>
<path d="M91.3729 104.147C91.3729 104.147 86.9302 105.695 86.8729 107.701C86.7238 113.095 87.2914 124.606 88.4665 125.724C89.6417 126.842 93.2933 123.884 93.2933 123.884C93.2933 123.884 98.4525 124.331 99.0258 123.173C99.599 122.015 97.4494 105.718 97.1283 104.296C96.8073 102.874 91.3729 104.147 91.3729 104.147Z" fill="#EBDE02" stroke="#216BC6" stroke-linecap="round" stroke-linejoin="round"/>
<path d="M184.171 111.909C185.327 112.474 186.584 112.805 187.868 112.883C186.446 107.54 184.836 101.59 183.173 95.6513C181.671 95.5481 179.734 95.5481 179.774 96.2245C179.802 97.3825 182.72 111.072 184.171 111.909Z" fill="#EBDE02" stroke="#216BC6" stroke-linecap="round" stroke-linejoin="round"/>
<path d="M90.7366 105.832C90.7366 105.832 90.9315 116.151 91.6939 120.163" stroke="#216BC6" stroke-width="0.75" stroke-linecap="round" stroke-linejoin="round"/>
<path d="M144.324 108.217C144.324 108.217 169.902 104.095 199.706 109.363" stroke="#216BC6" stroke-linecap="round" stroke-linejoin="round"/>
<path d="M222.194 124.377C223.954 124.904 225.685 125.46 227.354 126.056" stroke="#216BC6" stroke-linecap="round" stroke-linejoin="round"/>
<path d="M176.271 116.592C176.271 116.592 196.553 117.825 215.975 122.68" stroke="#216BC6" stroke-linecap="round" stroke-linejoin="round"/>
<path d="M114.544 163.822C131.243 161.27 148.21 160.967 164.99 162.922" stroke="#216BC6" stroke-linecap="round" stroke-linejoin="round"/>
<path d="M112.446 161.122C112.446 161.122 124.449 159.62 128.353 159.322" stroke="#216BC6" stroke-linecap="round" stroke-linejoin="round"/>
<path d="M192.838 49.7855C194.558 50.032 196.278 50.3588 197.837 50.7314" stroke="#216BC6" stroke-linecap="round" stroke-linejoin="round"/>
<path d="M168.125 49.2179C175.189 48.719 182.28 48.7669 189.336 49.3612" stroke="#216BC6" stroke-linecap="round" stroke-linejoin="round"/>
<path d="M75.6372 118.661C75.6372 118.661 92.7659 110.55 117.548 108.297" stroke="#216BC6" stroke-linecap="round" stroke-linejoin="round"/>
<path d="M104.483 103.786C104.483 103.786 114.853 101.086 130.629 100.18" stroke="#216BC6" stroke-linecap="round" stroke-linejoin="round"/>
<path d="M75.3563 161.059C77.438 164.788 80.7973 167.638 84.8149 169.085" stroke="#216BC6" stroke-linecap="round" stroke-linejoin="round"/>
<path d="M74.7831 163.639C74.7831 163.639 77.3627 167.651 80.8022 169.371" stroke="#216BC6" stroke-linecap="round" stroke-linejoin="round"/>
<path d="M159.337 149.307C159.337 149.307 161.057 157.333 167.936 160.773" stroke="#216BC6" stroke-linecap="round" stroke-linejoin="round"/>
<path d="M160.197 156.473C161.561 158.47 163.444 160.056 165.643 161.059" stroke="#216BC6" stroke-linecap="round" stroke-linejoin="round"/>
<path d="M46.7855 171.928C46.7855 171.928 48.5052 174.794 54.5244 174.794" stroke="#216BC6" stroke-linecap="round" stroke-linejoin="round"/>
<path d="M45.639 173.648C47.8319 175.471 50.5349 176.573 53.3779 176.801" stroke="#216BC6" stroke-linecap="round" stroke-linejoin="round"/>
<path d="M123.131 166.574C107.906 167.402 92.7937 169.663 77.9933 173.327L78.3487 173.86C78.3487 173.86 90.9602 171.183 114.269 176.915C137.577 182.648 139.113 187.234 164.715 187.234C190.316 187.234 215.161 181.123 215.161 181.123L212.054 179.403C189.066 169.675 157.56 164.648 123.131 166.574Z" fill="#EBDE02"/>
<path opacity="0.5" d="M123.131 166.574C107.906 167.402 92.7937 169.663 77.9933 173.327L78.3487 173.86C78.3487 173.86 90.9602 171.183 114.269 176.915C137.577 182.648 139.113 187.234 164.715 187.234C190.316 187.234 215.161 181.123 215.161 181.123L212.054 179.403C189.066 169.675 157.56 164.648 123.131 166.574Z" fill="white"/>
<path d="M67.0442 179.69C67.0442 179.69 97.1398 175.104 123.223 192.588" stroke="#216BC6" stroke-linecap="round" stroke-linejoin="round"/>
<path d="M98.5729 186.282C98.5729 186.282 110.898 190.008 118.35 198.034" stroke="#216BC6" stroke-linecap="round" stroke-linejoin="round"/>
<path d="M171.376 171.664C171.376 171.664 188.86 173.384 204.624 182.843" stroke="#216BC6" stroke-linecap="round" stroke-linejoin="round"/>
<path d="M225.892 186.477C229.04 188.404 232.038 190.567 234.857 192.949" stroke="#216BC6" stroke-linecap="round" stroke-linejoin="round"/>
<path d="M20.7886 200C41.6836 182.229 79.4378 169.044 123.131 166.574C163.012 164.309 198.983 171.452 222.303 184.344" stroke="#216BC6" stroke-linecap="round" stroke-linejoin="round"/>
<path d="M148.159 171.378C148.159 171.378 166.217 172.237 178.255 176.25" stroke="#216BC6" stroke-linecap="round" stroke-linejoin="round"/>
<path d="M66.2875 35.2879C66.2875 35.2879 65.7142 27.3599 54.1059 27.0732C42.4976 26.7866 45.6046 35.007 42.4919 36.9905C39.3791 38.9739 38.525 35.844 35.4065 37.8389C32.288 39.8338 33.6867 43.7892 31.1587 44.3567C28.6307 44.9243 25.2084 41.8058 22.0956 43.7835C18.9829 45.7612 18.9771 47.4638 17.5612 47.4638C16.1453 47.4638 13.3134 46.3173 11.6166 47.4638C9.91978 48.6103 7.9306 49.9975 7.9306 49.9975H79.5869C79.5869 49.9975 80.4353 47.4466 77.2939 45.7497C74.1525 44.0529 72.7595 45.4631 71.6302 44.03C70.5009 42.5969 74.7831 38.9739 66.2875 35.2879Z" fill="#EBDE02"/>
<path d="M108.863 4.9458C108.863 4.9458 108.519 0.176351 101.537 0.00437609C94.5545 -0.167599 96.4233 4.77955 94.5487 5.97191C92.6742 7.16427 92.164 5.28974 90.2895 6.4821C88.4149 7.67447 89.2691 10.0592 87.7328 10.3974C86.1965 10.7356 84.1557 8.86683 82.2812 10.0592C80.4066 11.2516 80.4066 12.2719 79.5525 12.2719C78.6984 12.2719 76.9958 11.5955 75.9754 12.2719C74.955 12.9484 73.7627 13.8082 73.7627 13.8082H116.871C116.871 13.8082 117.381 12.2719 115.507 11.2516C113.632 10.2312 112.784 11.0796 112.102 10.2312C111.419 9.38275 113.976 7.16428 108.863 4.9458Z" fill="#EBDE02"/>
<path opacity="0.7" d="M66.2875 35.2879C66.2875 35.2879 65.7142 27.3599 54.1059 27.0732C42.4976 26.7866 45.6046 35.007 42.4919 36.9905C39.3791 38.9739 38.525 35.844 35.4065 37.8389C32.288 39.8338 33.6867 43.7892 31.1587 44.3567C28.6307 44.9243 25.2084 41.8058 22.0956 43.7835C18.9829 45.7612 18.9771 47.4638 17.5612 47.4638C16.1453 47.4638 13.3134 46.3173 11.6166 47.4638C9.91978 48.6103 7.9306 49.9975 7.9306 49.9975H79.5869C79.5869 49.9975 80.4353 47.4466 77.2939 45.7497C74.1525 44.0529 72.7595 45.4631 71.6302 44.03C70.5009 42.5969 74.7831 38.9739 66.2875 35.2879Z" fill="white"/>
<path opacity="0.8" d="M108.863 4.9458C108.863 4.9458 108.519 0.176351 101.537 0.00437609C94.5545 -0.167599 96.4233 4.77955 94.5487 5.97191C92.6742 7.16427 92.164 5.28974 90.2895 6.4821C88.4149 7.67447 89.2691 10.0592 87.7328 10.3974C86.1965 10.7356 84.1557 8.86683 82.2812 10.0592C80.4066 11.2516 80.4066 12.2719 79.5525 12.2719C78.6984 12.2719 76.9958 11.5955 75.9754 12.2719C74.955 12.9484 73.7627 13.8082 73.7627 13.8082H116.871C116.871 13.8082 117.381 12.2719 115.507 11.2516C113.632 10.2312 112.784 11.0796 112.102 10.2312C111.419 9.38275 113.976 7.16428 108.863 4.9458Z" fill="white"/>
</svg>
