<svg width="21" height="20" viewBox="0 0 21 20" fill="none" xmlns="http://www.w3.org/2000/svg">
<path d="M13.5953 6.11954C13.0575 4.85703 12.0999 3.81913 10.8848 3.18153C9.6696 2.54392 8.27144 2.34577 6.92695 2.62062C5.58247 2.89547 4.37424 3.62643 3.50679 4.68978C2.63934 5.75314 2.16595 7.08356 2.16675 8.45585V13.3666C2.16675 13.6428 2.2765 13.9078 2.47185 14.1031C2.6672 14.2985 2.93215 14.4082 3.20841 14.4082H7.42716C7.8919 15.4683 8.65492 16.3704 9.62328 17.0045C10.5916 17.6387 11.7235 17.9775 12.881 17.9797H17.7917C18.068 17.9797 18.333 17.8699 18.5283 17.6746C18.7237 17.4792 18.8334 17.2143 18.8334 16.938V12.0273C18.8362 10.5717 18.3043 9.16575 17.3386 8.0766C16.3729 6.98746 15.0408 6.291 13.5953 6.11954ZM17.6429 16.7892H12.881C12.0391 16.7882 11.2123 16.5648 10.4845 16.1414C9.7567 15.7181 9.15373 15.1099 8.73669 14.3785C10.1996 14.2225 11.5534 13.5317 12.538 12.4385C13.5227 11.3454 14.0688 9.92706 14.0715 8.45585C14.0698 8.09907 14.0375 7.74309 13.9748 7.39186C15.019 7.6383 15.9494 8.23015 16.6152 9.07149C17.281 9.91284 17.6431 10.9544 17.6429 12.0273V16.7892Z" fill="#216BC6"/>
</svg>
