<svg width="20" height="20" viewBox="0 0 20 20" fill="none" xmlns="http://www.w3.org/2000/svg">
<path d="M18.2718 7.72172C18.1973 7.48739 18.0538 7.28103 17.86 7.1297C17.6661 6.97838 17.4311 6.88915 17.1857 6.87371L12.7672 6.56873L11.1307 2.44029C11.0413 2.21296 10.8858 2.0177 10.6842 1.87977C10.4826 1.74185 10.2443 1.66761 10 1.66667C9.75577 1.66761 9.51742 1.74185 9.31583 1.87977C9.11425 2.0177 8.95871 2.21296 8.86935 2.44029L7.20309 6.59104L2.8143 6.87371C2.5692 6.89015 2.33467 6.97975 2.14105 7.13094C1.94743 7.28212 1.80363 7.48792 1.72826 7.72172C1.65085 7.9591 1.64633 8.21423 1.71527 8.45421C1.78422 8.69419 1.92347 8.90801 2.11507 9.06811L5.49221 11.9245L4.48799 15.8745C4.41851 16.1417 4.43102 16.4236 4.52388 16.6836C4.61674 16.9436 4.78566 17.1697 5.0087 17.3324C5.22518 17.4878 5.48311 17.5751 5.74946 17.583C6.01582 17.591 6.27849 17.5193 6.50386 17.3771L9.99258 15.1678H10.0075L13.764 17.5407C13.9567 17.6659 14.1813 17.7331 14.4111 17.7341C14.5988 17.7326 14.7836 17.6882 14.9513 17.6041C15.1191 17.52 15.2654 17.3986 15.3789 17.2492C15.4924 17.0998 15.5701 16.9263 15.6061 16.7422C15.6421 16.558 15.6353 16.368 15.5864 16.1869L14.5227 11.865L17.885 9.06811C18.0766 8.90801 18.2158 8.69419 18.2848 8.45421C18.3537 8.21423 18.3492 7.9591 18.2718 7.72172Z" fill="#EBDE02"/>
</svg>
