<svg width="24" height="24" viewBox="0 0 24 24" fill="none" xmlns="http://www.w3.org/2000/svg">
<path d="M21.4619 8.77818C21.2572 8.55017 21.0072 8.36744 20.7278 8.2417C20.4484 8.11597 20.1457 8.05 19.8393 8.04802H14.9806V6.60573C14.9782 5.65016 14.5976 4.73441 13.9219 4.05872C13.2462 3.38303 12.3305 3.00238 11.3749 3C11.2409 3.00109 11.1098 3.03856 10.9955 3.10843C10.8811 3.17829 10.7879 3.27791 10.7259 3.39663L7.31845 10.2115H3.44229C3.05977 10.2115 2.69292 10.3634 2.42244 10.6339C2.15196 10.9044 2 11.2712 2 11.6538V19.5864C2 19.9689 2.15196 20.3357 2.42244 20.6062C2.69292 20.8767 3.05977 21.0287 3.44229 21.0287H18.7576C19.2838 21.0265 19.7914 20.8334 20.186 20.4852C20.5806 20.137 20.8354 19.6575 20.903 19.1356L21.9848 10.4819C22.0207 10.1772 21.9928 9.86829 21.9028 9.57496C21.8128 9.28162 21.6626 9.01026 21.4619 8.77818ZM3.44229 11.6538H7.04802V19.5864H3.44229V11.6538Z" fill="#FF313D"/>
</svg>
